<svg width="32" height="35" viewBox="0 0 32 35" fill="none" xmlns="http://www.w3.org/2000/svg">
<path fill-rule="evenodd" clip-rule="evenodd" d="M27.794 0C29.8451 0 31.4995 1.65811 31.5972 3.60937V35L27.6919 31.6852L25.5474 29.734L23.2074 27.6952L24.1848 30.9109H3.70546C1.66018 30.9109 0 29.3577 0 27.3V3.61667C0 1.66541 1.6631 0.0044101 3.71275 0.0044101H27.7838L27.794 0ZM18.8526 8.30334H18.8089L18.5143 8.59476C21.537 9.469 22.9995 10.8343 22.9995 10.8343C21.0514 9.86098 19.2959 9.37431 17.5403 9.17758C16.2718 8.98089 15.0032 9.08432 13.9315 9.17758H13.6399C12.9546 9.17758 11.4965 9.46904 9.5426 10.2485C8.86166 10.5443 8.4709 10.7381 8.4709 10.7381C8.4709 10.7381 9.93191 9.27813 13.1514 8.49863L12.9545 8.3019C12.9545 8.3019 10.5166 8.20864 7.88471 10.1524C7.88471 10.1524 5.25284 14.7334 5.25284 20.3811C5.25284 20.3811 6.71096 22.9164 10.7106 23.0126C10.7106 23.0126 11.2938 22.236 11.8843 21.5526C9.63884 20.8707 8.76398 19.5069 8.76398 19.5069C8.76398 19.5069 8.95934 19.603 9.25241 19.7983H9.33991C9.38365 19.7983 9.40406 19.8201 9.4274 19.842V19.8507C9.45074 19.874 9.47115 19.8944 9.51489 19.8944C9.99607 20.0926 10.4772 20.2879 10.8709 20.4773C11.7129 20.8375 12.5936 21.0995 13.4955 21.2583C14.8516 21.455 16.4059 21.5497 18.1761 21.2583C19.0509 21.0616 19.9258 20.8692 20.8006 20.4787C21.3693 20.1873 22.0692 19.8959 22.8376 19.4049C22.8376 19.4049 21.9628 20.7687 19.6225 21.4506C20.1037 22.1296 20.7817 22.9077 20.7817 22.9077C24.7828 22.8203 26.3371 20.2849 26.4246 20.3927C26.4246 14.7538 23.7781 10.164 23.7781 10.164C21.3941 8.39515 19.1632 8.32812 18.7695 8.32812L18.8512 8.29897L18.8526 8.30334ZM19.1267 14.7136C20.1478 14.7136 20.9713 15.5859 20.9713 16.6545C20.9713 17.7302 20.1434 18.6025 19.1267 18.6025C18.1101 18.6025 17.2822 17.7302 17.2822 16.6632C17.2851 15.5873 18.1144 14.718 19.1267 14.718V14.7136ZM12.4763 14.7136C13.4929 14.7136 14.315 15.5859 14.315 16.6545C14.315 17.7302 13.4871 18.6025 12.4705 18.6025C11.4538 18.6025 10.626 17.7302 10.626 16.6632C10.626 15.5873 11.4538 14.718 12.4705 14.718L12.4763 14.7136Z" fill="#AA759E"/>
</svg>
