<svg width="35" height="35" viewBox="0 0 35 35" fill="none" xmlns="http://www.w3.org/2000/svg">
<path d="M17.5 0C7.83266 0 0 7.83266 0 17.5C0 27.1673 7.83266 35 17.5 35C27.1673 35 35 27.1673 35 17.5C35 7.83266 27.1673 0 17.5 0ZM26.0948 11.9889L23.2228 25.5232C23.0111 26.4829 22.4395 26.7157 21.6421 26.2641L17.2671 23.0393L15.1573 25.0716C14.9244 25.3044 14.7268 25.502 14.2752 25.502L14.5857 21.0494L22.6935 13.7248C23.0464 13.4143 22.6159 13.2379 22.1502 13.5484L12.13 19.8569L7.81149 18.5091C6.87298 18.2127 6.85181 17.5706 8.00907 17.119L24.881 10.6129C25.6643 10.3306 26.3488 10.8034 26.0948 11.9889Z" fill="#AA759E"/>
</svg>
