<svg width="50" height="35" viewBox="0 0 50 35" fill="none" xmlns="http://www.w3.org/2000/svg">
<path d="M48.7682 5.46736C48.4846 4.40865 47.9287 3.44318 47.1561 2.66756C46.3834 1.89194 45.4212 1.33337 44.3655 1.04777C40.4799 2.12603e-07 24.9038 0 24.9038 0C24.9038 0 9.32782 -2.12603e-07 5.44216 1.0422C4.38608 1.32687 3.4233 1.88513 2.65051 2.66089C1.87772 3.43665 1.32212 4.40262 1.03951 5.46178C-2.12055e-07 9.36306 0 17.5 0 17.5C0 17.5 -2.12055e-07 25.6369 1.03951 29.5326C1.61208 31.6839 3.30198 33.3782 5.44216 33.9522C9.32782 35 24.9038 35 24.9038 35C24.9038 35 40.4799 35 44.3655 33.9522C46.5113 33.3782 48.1956 31.6839 48.7682 29.5326C49.8077 25.6369 49.8077 17.5 49.8077 17.5C49.8077 17.5 49.8077 9.36306 48.7682 5.46736ZM19.9564 24.9682V10.0318L32.8531 17.4443L19.9564 24.9682Z" fill="#AA759E"/>
</svg>
